#!OML:ASF F:\VICON\USERDATA\Patient Classification 1\PLAYGROUND\JustinFriday\JustinFriday.ASF
:FULLY-SPECIFIED
:DEGREES
2857
root 9.74003 17.4299 -16.3816 -795.509 -99.4306 74.8461
lowerback 12.3204 6.16842 1.81754
upperback 3.45973 8.32472 2.39304
thorax -3.32064 4.04668 0.239543
lowerneck -1.22769 0.755384 -3.00894
upperneck -7.4754 1.21281 5.20905
head -2.21742 0.526815 2.17697
rclavicle -1.15047e-013 -4.17448e-015
rhumerus -29.1445 3.50468 -63.4029
rradius 107.797
rwrist 371.329
rhand -25.8438 -17.9344
rfingers 7.12502
rthumb 0.696599 672.087
lclavicle -1.15047e-013 -4.17448e-015
lhumerus -39.5088 20.5326 78.4066
lradius 58.739
lwrist -10.5031
lhand -28.455 -13.444
lfingers 7.12502
lthumb -1.82533 16.5279
rfemur -21.9372 11.7367 17.5606
rtibia 26.1203
rfoot -17.4728 2.32017
rtoes -22.8893
lfemur -7.13079 -26.5656 -13.7746
ltibia 37.7947
lfoot -7.65519 -46.3034
ltoes 28.5201
2858
root 9.65816 17.4176 -16.4375 -798.028 -99.0844 77.5509
lowerback 12.1134 6.08409 1.66777
upperback 3.37521 8.19922 2.36576
thorax -3.31403 3.98907 0.327319
lowerneck -0.69175 1.01293 -2.9013
upperneck -7.82519 1.54131 4.83584
head -2.43755 0.688332 2.0323
rclavicle -3.09607e-014 1.64991e-014
rhumerus -29.0213 4.12522 -63.6354
rradius 107.651
rwrist 370.909
rhand -26.8897 -18.5366
rfingers 7.12502
rthumb -0.313557 671.484
lclavicle -3.09607e-014 1.64991e-014
lhumerus -38.7125 20.0272 78.1658
lradius 59.6068
lwrist -11.1964
lhand -28.0569 -13.9733
lfingers 7.12502
lthumb -1.44087 16.0016
rfemur -22.5261 11.1587 17.5903
rtibia 26.6184
rfoot -17.3173 3.68632
rtoes -23.1565
lfemur -6.9627 -26.2525 -13.6903
ltibia 37.2175
lfoot -5.33409 -47.199
ltoes 30.0034
2859
root 9.57949 17.4036 -16.4839 -801.839 -99.4438 81.2682
lowerback 12.1778 6.05288 2.14265
upperback 3.32515 8.23007 2.71363
thorax -3.3864 3.9989 0.412911
lowerneck -2.58589 1.46343 -4.25648
upperneck -5.29348 2.17183 5.76404
head -1.34516 1.06924 2.56668
rclavicle -2.09718e-014 3.18055e-015
rhumerus -28.7107 4.66762 -63.5284
rradius 107.202
rwrist 370.482
rhand -27.152 -16.9851
rfingers 7.12502
rthumb -0.566893 673.036
lclavicle -2.09718e-014 3.18055e-015
lhumerus -37.7945 19.5101 78.1791
lradius 60.1338
lwrist -11.8392
lhand -28.2153 -13.9738
lfingers 7.12502
lthumb -1.59385 16
rfemur -22.812 10.5299 18.4848
rtibia 27.6739
rfoot -16.9433 4.84336
rtoes -21.7196
lfemur -6.39996 -26.1349 -13.0201
ltibia 36.4935
lfoot -1.98031 -47.8524
ltoes 32.0667
2860
root 9.49862 17.3938 -16.5289 -804.407 -99.531 83.7453
lowerback 12.3423 5.88644 2.58815
upperback 3.18069 8.07953 2.73311
thorax -3.5685 3.91856 0.187912
lowerneck -2.9147 2.0951 -4.86651
upperneck -4.92245 3.04147 6.12389
head -1.23785 1.51945 2.79873
rclavicle -2.61402e-014 -1.19271e-015
rhumerus -28.2716 4.95502 -64.3803
rradius 106.607
rwrist 370.574
rhand -26.0781 -20.9523
rfingers 7.12502
rthumb 0.470356 669.068
lclavicle -2.61402e-014 -1.19271e-015
lhumerus -37.3022 19.1981 77.6395
lradius 61.0189
lwrist -12.3931
lhand -28.7838 -13.5474
lfingers 7.12502
lthumb -2.14294 16.4216
rfemur -22.5479 9.94359 19.0164
rtibia 27.9641
rfoot -16.0248 6.37959
rtoes -20.4745
lfemur -6.05008 -25.9592 -12.771
ltibia 36.3627
lfoot 0.21225 -48.3127
ltoes 33.5641
2861
root 9.41617 17.3868 -16.5639 -805.522 -99.0567 84.9232
lowerback 12.034 5.89116 2.05209
upperback 3.17461 8.02657 3.03392
thorax -3.52543 3.89937 0.824373
lowerneck -4.6814 1.65766 -4.65158
upperneck -2.43037 2.4293 5.5033
head -0.0915466 1.25543 2.57645
rclavicle 6.1002e-015 -3.37934e-015
rhumerus -28.1336 7.53294 -65.691
rradius 106.908
rwrist 366.061
rhand -32.4617 -29.244
rfingers 7.12502
rthumb -5.69449 660.853
lclavicle 6.1002e-015 -3.37934e-015
lhumerus -36.9664 19.2407 77.7834
lradius 62.2977
lwrist -12.8149
lhand -29.579 -13.4089
lfingers 7.12502
lthumb -2.91085 16.551
rfemur -22.4465 9.32663 18.7866
rtibia 28.3464
rfoot -15.6016 7.87121
rtoes -20.3131
lfemur -5.76588 -26.0556 -13.2647
ltibia 36.2584
lfoot 1.20206 -48.2354
ltoes 34.5978
2862
root 9.36161 17.3799 -16.6186 -808.274 -99.0562 87.7079
lowerback 12.3375 5.81504 2.2442
upperback 3.00316 7.97215 3.06002
thorax -3.84782 3.86601 0.712797
lowerneck -4.61444 1.73429 -4.42241
upperneck -2.44081 2.51815 5.29312
head -0.105768 1.29674 2.46374
rclavicle 5.00192e-014 -1.38155e-014
rhumerus -27.4638 5.88446 -65.5575
rradius 105.841
rwrist 370.415
rhand -27.133 -25.4629
rfingers 7.12502
rthumb -0.548512 664.558
lclavicle 5.00192e-014 -1.38155e-014
lhumerus -36.3349 18.1726 77.3311
lradius 63.7122
lwrist -12.7983
lhand -28.3768 -12.3163
lfingers 7.12502
lthumb -1.74985 17.6563
rfemur -22.3971 8.81921 19.1558
rtibia 28.9139
rfoot -15.9567 8.10078
rtoes -20.2197
lfemur -5.58783 -25.6986 -12.9048
ltibia 36.0923
lfoot 2.49137 -48.825
ltoes 35.5374
2863
root 9.28699 17.3804 -16.6688 -809.029 -99.2036 88.2897
lowerback 12.521 5.89348 2.36927
upperback 2.95926 8.10664 3.23824
thorax -4.0034 3.92724 0.785773
lowerneck -4.34602 1.76526 -4.15933
upperneck -2.39257 2.5375 4.78644
head -0.127758 1.30139 2.24441
rclavicle -8.07501e-014 2.84883e-014
rhumerus -27.1512 5.83986 -65.9662
rradius 105.657
rwrist 370.889
rhand -26.9577 -26.576
rfingers 7.12502
rthumb -0.37925 663.445
lclavicle -8.07501e-014 2.84883e-014
lhumerus -35.4114 16.3531 76.9446
lradius 64.5687
lwrist -12.3187
lhand -29.7312 -11.7527
lfingers 7.12502
lthumb -3.05785 18.2051
rfemur -22.2104 8.65124 19.6251
rtibia 29.5258
rfoot -16.3887 8.01314
rtoes -19.6256
lfemur -5.01546 -25.1304 -12.6411
ltibia 35.9325
lfoot 1.22487 -49.3929
ltoes 34.5283
2864
root 9.20775 17.3817 -16.7175 -808.524 -98.9086 87.6313
lowerback 12.597 5.9823 2.06803
upperback 2.94453 8.19269 3.25505
thorax -4.10558 3.97188 0.942671
lowerneck -4.95817 2.0717 -4.78228
upperneck -1.68762 2.98257 5.26755
head 0.16124 1.5403 2.53843
rclavicle -7.41933e-014 2.09469e-014
rhumerus -26.7215 6.25245 -66.4179
rradius 105.719
rwrist 370.753
rhand -27.0305 -28.5384
rfingers 7.12502
rthumb -0.449539 661.482
lclavicle -7.41933e-014 2.09469e-014
lhumerus -34.0357 14.6719 76.3331
lradius 64.2203
lwrist -11.3655
lhand -31.5687 -11.3587
lfingers 7.12502
lthumb -4.83232 18.5662
rfemur -22.0376 9.167 19.4677
rtibia 29.9786
rfoot -16.0983 7.96473
rtoes -18.0929
lfemur -4.44746 -24.7047 -12.9619
ltibia 35.9139
lfoot 0.572506 -49.4662
ltoes 34.1423
